<svg width="19" height="27" viewBox="0 0 19 27" fill="none" xmlns="http://www.w3.org/2000/svg">
<g filter="url(#filter0_d_9_9485)">
<path d="M7.03248 3.98768C6.48834 3.44066 5.60511 3.43404 5.05283 3.97285C4.47912 4.53257 4.48833 5.45781 5.07306 6.00599L10.4437 11.0409C11.2865 11.8311 11.2865 13.1689 10.4437 13.9591L5.07306 18.994C4.48833 19.5422 4.47912 20.4674 5.05283 21.0271C5.60511 21.566 6.48834 21.5593 7.03248 21.0123L14.0969 13.9105C14.873 13.1303 14.873 11.8697 14.0969 11.0895L7.03248 3.98768Z" fill="white"/>
<path d="M5.40199 4.33074C5.75797 3.98344 6.32726 3.98771 6.678 4.3403L13.7425 11.4421C14.3245 12.0273 14.3245 12.9727 13.7425 13.5579L6.678 20.6597C6.32726 21.0123 5.75797 21.0166 5.40199 20.6693C5.0322 20.3085 5.03813 19.7121 5.41503 19.3588L10.7856 14.3238C11.8392 13.3362 11.8392 11.6638 10.7856 10.6762L5.41503 5.64123C5.03813 5.28788 5.0322 4.69151 5.40199 4.33074Z" stroke="white"/>
</g>
<defs>
<filter id="filter0_d_9_9485" x="0.628906" y="0.572998" width="18.0498" height="25.854" filterUnits="userSpaceOnUse" color-interpolation-filters="sRGB">
<feFlood flood-opacity="0" result="BackgroundImageFix"/>
<feColorMatrix in="SourceAlpha" type="matrix" values="0 0 0 0 0 0 0 0 0 0 0 0 0 0 0 0 0 0 127 0" result="hardAlpha"/>
<feOffset dy="1"/>
<feGaussianBlur stdDeviation="2"/>
<feComposite in2="hardAlpha" operator="out"/>
<feColorMatrix type="matrix" values="0 0 0 0 0 0 0 0 0 0 0 0 0 0 0 0 0 0 0.15 0"/>
<feBlend mode="normal" in2="BackgroundImageFix" result="effect1_dropShadow_9_9485"/>
<feBlend mode="normal" in="SourceGraphic" in2="effect1_dropShadow_9_9485" result="shape"/>
</filter>
</defs>
</svg>
