<svg width="36" height="24" viewBox="0 0 36 24" fill="none" xmlns="http://www.w3.org/2000/svg">
<path fill-rule="evenodd" clip-rule="evenodd" d="M2.80765 2.26404C3.25367 1.56593 4.13763 1.33375 4.78204 1.74546L32.7855 19.6366C33.4299 20.0483 33.5907 20.9479 33.1447 21.6461C32.6987 22.3442 31.8147 22.5763 31.1703 22.1646L3.16688 4.27355C2.52247 3.86184 2.36163 2.96216 2.80765 2.26404Z" fill="white"/>
<path fill-rule="evenodd" clip-rule="evenodd" d="M33.1445 2.26404C32.6985 1.56593 31.8145 1.33375 31.1701 1.74546L3.16666 19.6366C2.52225 20.0483 2.36142 20.9479 2.80743 21.6461C3.25345 22.3442 4.13742 22.5763 4.78183 22.1646L32.7853 4.27355C33.4297 3.86184 33.5905 2.96216 33.1445 2.26404Z" fill="white"/>
</svg>
