<svg width="199" height="78" viewBox="0 0 199 78" fill="none" xmlns="http://www.w3.org/2000/svg">
<path d="M32 76V33C32 28.3 32.4 21.2 32.6 16.4H32.2C30.3 20.7 28.3 25 26.2 29.2L17.7 43.9H56.8V57.4H0.7V45.1L26.6 1.49999H48.6V76H32ZM99.9375 77.4C84.2375 77.4 73.5375 64 73.5375 38.4C73.5375 12.8 84.2375 0.199998 99.9375 0.199998C115.638 0.199998 126.238 12.9 126.238 38.4C126.238 64 115.638 77.4 99.9375 77.4ZM99.9375 63.6C105.238 63.6 109.438 58.8 109.438 38.4C109.438 18.1 105.238 13.8 99.9375 13.8C94.6375 13.8 90.3375 18.1 90.3375 38.4C90.3375 58.8 94.6375 63.6 99.9375 63.6ZM173.875 76V33C173.875 28.3 174.275 21.2 174.475 16.4H174.075C172.175 20.7 170.175 25 168.075 29.2L159.575 43.9H198.675V57.4H142.575V45.1L168.475 1.49999H190.475V76H173.875Z" fill="#629DE2"/>
</svg>
