<svg width="36" height="25" viewBox="0 0 36 25" fill="none" xmlns="http://www.w3.org/2000/svg">
<path fill-rule="evenodd" clip-rule="evenodd" d="M0 1.38462C0 0.619913 0.619913 0 1.38462 0H34.6154C35.3801 0 36 0.619913 36 1.38462C36 2.14932 35.3801 2.76923 34.6154 2.76923H1.38462C0.619913 2.76923 0 2.14932 0 1.38462Z" fill="white"/>
<path fill-rule="evenodd" clip-rule="evenodd" d="M0 12.1539C0 11.3892 0.619913 10.7693 1.38462 10.7693H34.6154C35.3801 10.7693 36 11.3892 36 12.1539C36 12.9186 35.3801 13.5385 34.6154 13.5385H1.38462C0.619913 13.5385 0 12.9186 0 12.1539Z" fill="white"/>
<path fill-rule="evenodd" clip-rule="evenodd" d="M0 22.9232C0 22.1585 0.619913 21.5386 1.38462 21.5386H34.6154C35.3801 21.5386 36 22.1585 36 22.9232C36 23.6879 35.3801 24.3078 34.6154 24.3078H1.38462C0.619913 24.3078 0 23.6879 0 22.9232Z" fill="white"/>
</svg>
